<svg width="16" height="21" viewBox="0 0 16 21" fill="none" xmlns="http://www.w3.org/2000/svg">
<path d="M4.97515 8.05653C4.97515 8.52381 5.0837 8.9665 5.27706 9.36C4.86151 9.89258 4.60285 10.5532 4.56808 11.2732C3.77005 10.4353 3.27902 9.30233 3.27902 8.05737C3.27902 5.16463 5.92668 2.87825 8.92628 3.49394C10.6919 3.85692 12.1226 5.27912 12.4992 7.04224C12.6128 7.57483 12.634 8.09639 12.5763 8.59505C12.5272 9.01738 12.1566 9.32947 11.7308 9.32947H11.6927C11.1906 9.32947 10.8378 8.88254 10.8929 8.38388C10.9303 8.04889 10.9107 7.69695 10.8251 7.33822C10.5724 6.27559 9.70565 5.41481 8.64133 5.16972C6.70265 4.72449 4.9743 6.19333 4.9743 8.05737L4.97515 8.05653ZM1.67618 6.95828C1.90855 5.60732 2.56919 4.37593 3.59365 3.41508C4.89034 2.1998 6.58817 1.59937 8.36825 1.70962C11.7206 1.92672 14.342 4.86357 14.303 8.37964C14.2869 9.85188 13.0538 11.0239 11.5824 11.0239H9.54197C9.33504 10.3209 8.69221 9.80354 7.92217 9.80354C6.98506 9.80354 6.22604 10.5626 6.22604 11.4997C6.22604 12.4368 6.98506 13.1958 7.92217 13.1958C8.37843 13.1958 8.79143 13.0135 9.09589 12.72H11.5824C13.9731 12.72 15.9652 10.8161 15.9991 8.42628C16.0619 3.99854 12.7358 0.292505 8.47765 0.0177327C6.21841 -0.128982 4.07535 0.638515 2.43435 2.1786C1.1631 3.37013 0.317584 4.94753 0.0131292 6.6445C-0.0793097 7.16012 0.328609 7.63334 0.851864 7.63334C1.25215 7.63334 1.60918 7.35433 1.67618 6.95913V6.95828ZM7.94337 14.417C4.80978 14.417 2.09852 16.3608 1.19703 19.2527C1.0571 19.6996 1.30727 20.1754 1.7542 20.3153C2.20029 20.4501 2.67605 20.2042 2.81598 19.7581C3.4851 17.6125 5.59254 16.1131 7.94252 16.1131C10.2925 16.1131 12.4008 17.6125 13.0691 19.7581C13.1827 20.1211 13.5168 20.3534 13.879 20.3534C13.9629 20.3534 14.0469 20.3407 14.1317 20.3153C14.5786 20.1754 14.828 19.6996 14.6889 19.2527C13.7874 16.3608 11.0761 14.417 7.94252 14.417H7.94337Z" fill="#007AFF"/>
</svg>
