<svg width="28" height="28" viewBox="0 0 28 28" fill="none" xmlns="http://www.w3.org/2000/svg">
<path fill-rule="evenodd" clip-rule="evenodd" d="M12.2936 6.58796C13.0011 5.0156 15.2337 5.0156 15.9413 6.58796L16.084 6.90525H12.1508L12.2936 6.58796ZM9.92857 6.96981L10.4697 5.76723C11.8849 2.62251 16.35 2.62251 17.7651 5.76723L18.2781 6.9072C21.3396 6.98464 23.8631 9.36351 24.1054 12.433L24.5486 18.047C24.8241 21.536 22.0671 24.5193 18.5672 24.5193H10.2194C6.65719 24.5193 3.87945 21.4338 4.25236 17.8912L4.84331 12.2771C5.13343 9.52099 7.2594 7.36397 9.92857 6.96981ZM6.83232 12.4865C7.04661 10.4507 8.76331 8.90525 10.8103 8.90525H18.124C20.2111 8.90525 21.9473 10.5099 22.1116 12.5904L22.5548 18.2044C22.7384 20.5304 20.9005 22.5193 18.5672 22.5193H10.2194C7.84459 22.5193 5.99277 20.4623 6.24137 18.1005L6.83232 12.4865ZM12.8847 12.0129C12.8847 12.6937 12.3328 13.2456 11.652 13.2456C10.9713 13.2456 10.4194 12.6937 10.4194 12.0129C10.4194 11.3321 10.9713 10.7802 11.652 10.7802C12.3328 10.7802 12.8847 11.3321 12.8847 12.0129ZM17.406 13.2456C18.0867 13.2456 18.6386 12.6937 18.6386 12.0129C18.6386 11.3321 18.0867 10.7802 17.406 10.7802C16.7252 10.7802 16.1733 11.3321 16.1733 12.0129C16.1733 12.6937 16.7252 13.2456 17.406 13.2456Z" fill="#007AFF"/>
</svg>
