<svg width="24" height="24" viewBox="0 0 24 24" fill="none" xmlns="http://www.w3.org/2000/svg">
<g clip-path="url(#clip0_780_6040)">
<path d="M20 3H15.576C14.802 1.237 13.045 0 11 0H5C2.243 0 0 2.243 0 5V19C0 21.757 2.243 24 5 24H11C13.757 24 16 21.757 16 19V16H20C22.206 16 24 14.206 24 12V7C24 4.794 22.206 3 20 3ZM20 5C21.103 5 22 5.897 22 7H16V5H20ZM14 19C14 20.654 12.654 22 11 22H5C3.346 22 2 20.654 2 19V18H14V19ZM14 16H2V5C2 3.346 3.346 2 5 2H11C12.654 2 14 3.346 14 5V16ZM20 14H16V9H22V12C22 13.103 21.103 14 20 14ZM12.182 6.401C12.586 6.777 12.609 7.41 12.233 7.814L9.105 11.174C8.064 12.263 6.258 12.266 5.22 11.2L3.793 9.772C3.402 9.381 3.402 8.748 3.793 8.358C4.184 7.967 4.816 7.967 5.207 8.358L6.634 9.785C6.91 10.061 7.391 10.06 7.665 9.785L10.768 6.451C11.146 6.047 11.778 6.026 12.182 6.401ZM6 20C6 19.448 6.447 19 7 19H9C9.553 19 10 19.448 10 20C10 20.552 9.553 21 9 21H7C6.447 21 6 20.552 6 20Z" fill="#007AFF" stroke="#C8E2FF" stroke-width="0.5"/>
</g>
<defs>
<clipPath id="clip0_780_6040">
<rect width="24" height="24" fill="white"/>
</clipPath>
</defs>
</svg>
