<svg width="24" height="24" viewBox="0 0 24 24" fill="none" xmlns="http://www.w3.org/2000/svg">
<path d="M20.3075 10.1017C20.3675 10.2658 20.3183 10.4508 20.1842 10.5633L19.1983 11.3667L19.6058 12.6083C19.6617 12.7767 19.6058 12.9617 19.465 13.0692C19.3242 13.1767 19.1317 13.1842 18.9833 13.0883L17.8358 12.3408L16.7075 13.0958C16.6375 13.1425 16.5567 13.1658 16.4758 13.1658C16.3875 13.1658 16.3 13.1383 16.2258 13.0825C16.0842 12.9767 16.025 12.7925 16.0783 12.6242L16.47 11.3675L15.4792 10.5617C15.3458 10.4483 15.2975 10.2642 15.3575 10.1008C15.4175 9.93667 15.5742 9.8275 15.7483 9.8275H16.9983L17.4408 8.58583C17.5017 8.4225 17.6575 8.315 17.8317 8.315C18.0058 8.315 18.1617 8.42333 18.2225 8.58583L18.665 9.8275H19.915C20.09 9.8275 20.2475 9.93667 20.3075 10.1017ZM14.0825 9.8275H12.8325L12.39 8.58583C12.3292 8.4225 12.1733 8.315 11.9992 8.315C11.825 8.315 11.6692 8.42333 11.6083 8.58583L11.1658 9.8275H9.91583C9.74083 9.8275 9.585 9.93667 9.525 10.1008C9.46417 10.265 9.51333 10.4492 9.64667 10.5617L10.6375 11.3675L10.2458 12.6242C10.1933 12.7925 10.2517 12.9767 10.3933 13.0825C10.4675 13.1375 10.555 13.1658 10.6433 13.1658C10.7242 13.1658 10.805 13.1425 10.875 13.0958L12.0033 12.3408L13.1508 13.0883C13.2992 13.1842 13.4917 13.1767 13.6325 13.0692C13.7725 12.9608 13.8292 12.7758 13.7733 12.6083L13.3658 11.3667L14.3517 10.5633C14.4858 10.4508 14.535 10.2658 14.475 10.1017C14.415 9.9375 14.2583 9.8275 14.0833 9.8275H14.0825ZM8.24917 9.8275H6.99917L6.55667 8.58583C6.49583 8.4225 6.34 8.315 6.16583 8.315C5.99167 8.315 5.83583 8.42333 5.775 8.58583L5.3325 9.8275H4.0825C3.9075 9.8275 3.75167 9.93667 3.69167 10.1008C3.63083 10.265 3.68 10.4492 3.81333 10.5617L4.80417 11.3675L4.4125 12.6242C4.36 12.7925 4.41833 12.9767 4.56 13.0825C4.63417 13.1375 4.72167 13.1658 4.81 13.1658C4.89083 13.1658 4.97167 13.1425 5.04167 13.0958L6.17 12.3408L7.3175 13.0883C7.46583 13.1842 7.65833 13.1767 7.79917 13.0692C7.93917 12.9608 7.99583 12.7758 7.94 12.6083L7.5325 11.3667L8.51833 10.5633C8.6525 10.4508 8.70167 10.2658 8.64167 10.1017C8.58167 9.9375 8.42417 9.8275 8.24917 9.8275ZM21.9992 6.91583V14.4158C21.9992 16.0242 20.6908 17.3325 19.0825 17.3325H16.1392L12.8183 20.0783C12.5892 20.2825 12.2967 20.385 12.0033 20.385C11.7067 20.385 11.4067 20.28 11.1692 20.0692L7.92083 17.3325H4.91667C3.30833 17.3325 2 16.0242 2 14.4158V6.91667C2 5.30833 3.30833 4 4.91667 4H19.0833C20.6917 4 22 5.30833 22 6.91667L21.9992 6.91583ZM21.1658 6.91583C21.1658 5.7675 20.2317 4.8325 19.0825 4.8325H4.91583C3.76667 4.8325 2.8325 5.7675 2.8325 6.91583V14.4158C2.8325 15.5642 3.76667 16.4992 4.91583 16.4992H8.0725C8.17083 16.4992 8.26583 16.5342 8.34083 16.5975L11.7142 19.4392C11.88 19.5875 12.1183 19.5858 12.2758 19.4458L15.7242 16.595C15.7992 16.5333 15.8925 16.4992 15.9892 16.4992H19.0825C20.2317 16.4992 21.1658 15.5642 21.1658 14.4158V6.91583Z" fill="#007AFF"/>
</svg>
