<svg width="11" height="7" viewBox="0 0 11 7" fill="none" xmlns="http://www.w3.org/2000/svg">
<path d="M3.5 3.5L3.78284 3.21716L3.5 2.93431L3.21716 3.21716L3.5 3.5ZM5.5 5.5L5.21716 5.78284L5.5 6.06569L5.78284 5.78284L5.5 5.5ZM10.4 1C10.4 0.779086 10.2209 0.6 10 0.6H6.4C6.17909 0.6 6 0.779086 6 1C6 1.22091 6.17909 1.4 6.4 1.4H9.6V4.6C9.6 4.82091 9.77909 5 10 5C10.2209 5 10.4 4.82091 10.4 4.6V1ZM1.28284 6.28284L3.78284 3.78284L3.21716 3.21716L0.717157 5.71716L1.28284 6.28284ZM3.21716 3.78284L5.21716 5.78284L5.78284 5.21716L3.78284 3.21716L3.21716 3.78284ZM5.78284 5.78284L10.2828 1.28284L9.71716 0.717157L5.21716 5.21716L5.78284 5.78284Z" fill="#28A745"/>
</svg>
